<svg width="800" height="800" viewBox="0 0 64 64" xmlns="http://www.w3.org/2000/svg"><defs><style>.cls-1{fill:#414042}.cls-2{fill:#231f20}.cls-3{fill:#fff200}.cls-4{fill:#ffbe00}</style></defs><g id="cashier"><path class="cls-1" d="M57.81 40.35 56 25.94a.53.53 0 0 1 0-.13V16a4.93 4.93 0 0 0-1-3c.19-.25-1.33 1-2.67 1H33.69a3.7 3.7 0 0 1-3.63-3H13a5 5 0 0 0-5 5v9.82a.53.53 0 0 1 0 .13l-1.81 14.4A5 5 0 0 0 3 45v10a5 5 0 0 0 5 5h48a5 5 0 0 0 5-5V45a5 5 0 0 0-3.19-4.65ZM57 55a1 1 0 0 1-1 1H8a1 1 0 0 1-1-1V45a1 1 0 0 1 1-1h48a1 1 0 0 1 1 1Z"/><path class="cls-2" d="M57.81 40.35 56 25.94a.53.53 0 0 1 0-.13V16a4.93 4.93 0 0 0-1-3c.19-.25-1.33 1-2.67 1H33.69a3.7 3.7 0 0 1-3.63-3 5.47 5.47 0 0 1-.1-1v50H56a5 5 0 0 0 5-5V45a5 5 0 0 0-3.19-4.65Z"/><rect class="cls-3" height="21" rx="3.69" width="58" x="3" y="40"/><path class="cls-4" d="M56 6.69V10a4.84 4.84 0 0 1-.53 2.21A3.68 3.68 0 0 1 52.31 14H33.69a3.7 3.7 0 0 1-3.63-3 5.47 5.47 0 0 1-.1-1V6.69A3.69 3.69 0 0 1 33.69 3h18.62A3.69 3.69 0 0 1 56 6.69Z"/><path class="cls-4" d="M30 10a5.47 5.47 0 0 0 .1 1 3.85 3.85 0 0 1-.06-.69ZM56 10v.31a3.59 3.59 0 0 1-.53 1.9A4.84 4.84 0 0 0 56 10ZM61 43.69v13.62A3.69 3.69 0 0 1 57.31 61H30V40h27.31A3.69 3.69 0 0 1 61 43.69Z"/><rect class="cls-4" height="11" rx="2" width="26" x="30" y="3"/><path class="cls-1" d="M36 51a2 2 0 0 1-2 2h-8a2 2 0 0 1 0-4h8a2 2 0 0 1 2 2Z"/><path class="cls-2" d="M36 51a2 2 0 0 1-2 2h-4v-4h4a2 2 0 0 1 2 2Z"/><path class="cls-4" d="M46 27a2 2 0 1 1-2 2 2 2 0 0 1 2-2Zm0 6a2 2 0 1 1-2 2 2 2 0 0 1 2-2Zm-7-6a2 2 0 1 1-2 2 2 2 0 0 1 2-2Zm0 6a2 2 0 1 1-2 2 2 2 0 0 1 2-2Zm-7-2a2 2 0 1 1 2-2 2 2 0 0 1-2 2Zm2 4a2 2 0 1 1-2-2 2 2 0 0 1 2 2Z"/><path class="cls-3" d="M18 19h14a2 2 0 0 1 0 4H18a2 2 0 0 1 0-4Z"/></g></svg>