<svg height="800" width="800" xmlns="http://www.w3.org/2000/svg" viewBox="0 0 512.002 512.002" xml:space="preserve"><path style="fill:#ff9269" d="M256.804 8.174v149.243c41.245 0 74.621-33.376 74.621-74.621S298.051 8.174 256.804 8.174z"/><path style="fill:#ffb082" d="M256.804 8.174c-41.245 0-74.621 33.376-74.621 74.621s33.376 74.621 74.621 74.621c28.238 0 51.089-33.376 51.089-74.621s-22.85-74.621-51.089-74.621z"/><path style="fill:#c20035" d="M256.001 185.742v131.311h131.311c0-72.52-58.79-131.311-131.311-131.311z"/><path style="fill:#ff0f47" d="M256.001 185.742c-72.521 0-131.311 58.79-131.311 131.311h229.941c.001-72.522-44.157-131.311-98.63-131.311z"/><path style="fill:#f3a933" d="m327.717 419.521-34.696 35.328 7.299 48.978-44.326-22.071-15.251-52.547 15.251-61.792 22.887 43.912z"/><path style="fill:#ffbe35" d="M255.994 367.417v114.339l-44.315 22.071 7.287-48.978-34.685-35.328 48.836-8.192z"/><path style="fill:#f3a933" d="m503.831 419.521-34.696 35.328 7.299 48.978-44.326-22.071-15.251-52.547 15.251-61.792 22.887 43.912z"/><path style="fill:#ffbe35" d="M432.108 367.417v114.339l-44.316 22.071 7.288-48.978-34.685-35.328 48.836-8.192z"/><path style="fill:#f3a933" d="m151.608 419.521-34.696 35.328 7.298 48.978-44.326-22.071-15.251-52.547 15.251-61.792 22.888 43.912z"/><path style="fill:#ffbe35" d="M79.884 367.417v114.339l-44.315 22.071 7.288-48.978-34.685-35.328 48.836-8.192z"/><path d="M256.001 161.236c44.452 0 80.617-36.165 80.617-80.618C336.618 36.165 300.454 0 256.001 0s-80.617 36.165-80.617 80.617c0 44.454 36.165 80.619 80.617 80.619zm0-144.895c35.442 0 64.277 28.834 64.277 64.277s-28.834 64.278-64.277 64.278-64.277-28.835-64.277-64.278 28.835-64.277 64.277-64.277zM256.001 193.916c65.156 0 118.655 50.862 122.872 114.97H190.051a8.17 8.17 0 0 0 0 16.34h197.262a8.17 8.17 0 0 0 8.17-8.17c0-76.91-62.572-139.481-139.482-139.481S116.52 240.148 116.52 317.057a8.17 8.17 0 0 0 8.17 8.17h32.681a8.17 8.17 0 0 0 0-16.34h-24.243c4.218-64.108 57.718-114.971 122.873-114.971zM152.956 411.465l-44.82-7.522-21.004-40.301a8.17 8.17 0 0 0-14.49 0l-21.004 40.301-44.82 7.522a8.172 8.172 0 0 0-4.479 13.781l31.839 32.43-6.696 44.95a8.169 8.169 0 0 0 11.724 8.518l40.681-20.259 40.681 20.259a8.176 8.176 0 0 0 8.444-.705 8.169 8.169 0 0 0 3.279-7.814l-6.696-44.95 31.839-32.43a8.17 8.17 0 0 0-4.478-13.78zm-41.871 37.667a8.17 8.17 0 0 0-2.251 6.927l4.986 33.468-30.29-15.084a8.167 8.167 0 0 0-7.285 0l-30.291 15.084 4.986-33.468a8.163 8.163 0 0 0-2.251-6.927l-23.707-24.147 33.372-5.602a8.174 8.174 0 0 0 5.893-4.282l15.639-30.008 15.639 30.008a8.174 8.174 0 0 0 5.893 4.282l33.372 5.602-23.705 24.147zM329.07 411.465l-44.82-7.522-21.004-40.301a8.17 8.17 0 0 0-14.49 0l-21.004 40.301-44.82 7.522a8.172 8.172 0 0 0-4.479 13.781l31.839 32.43-6.695 44.95a8.169 8.169 0 0 0 11.723 8.518l40.681-20.259 40.681 20.259a8.176 8.176 0 0 0 8.444-.705 8.169 8.169 0 0 0 3.279-7.814l-6.696-44.95 31.839-32.43a8.17 8.17 0 0 0-4.478-13.78zm-41.871 37.667a8.167 8.167 0 0 0-2.251 6.927l4.985 33.468-30.29-15.084a8.167 8.167 0 0 0-7.284 0l-30.29 15.084 4.985-33.468a8.163 8.163 0 0 0-2.251-6.927l-23.707-24.147 33.372-5.602a8.174 8.174 0 0 0 5.893-4.282L256 385.095l15.639 30.008a8.174 8.174 0 0 0 5.893 4.282l33.371 5.602-23.704 24.145zM511.602 416.998a8.17 8.17 0 0 0-6.419-5.533l-44.82-7.522-21.004-40.301a8.168 8.168 0 0 0-14.49 0l-21.004 40.301-44.82 7.522a8.172 8.172 0 0 0-4.479 13.781l31.839 32.43-6.696 44.95a8.169 8.169 0 0 0 8.082 9.375 8.17 8.17 0 0 0 3.641-.856l40.681-20.259 40.681 20.259a8.169 8.169 0 0 0 11.723-8.518l-6.696-44.95 31.839-32.43a8.171 8.171 0 0 0 1.942-8.249zm-48.29 32.134a8.167 8.167 0 0 0-2.251 6.927l4.986 33.468-30.291-15.084a8.167 8.167 0 0 0-7.284 0l-30.29 15.084 4.986-33.468a8.163 8.163 0 0 0-2.251-6.927l-23.707-24.147 33.372-5.602a8.174 8.174 0 0 0 5.893-4.282l15.639-30.008 15.639 30.008a8.174 8.174 0 0 0 5.893 4.282l33.371 5.602-23.705 24.147z"/><path d="M256.001 117.661c10.71 0 20.898-4.654 27.953-12.768a8.172 8.172 0 0 0-12.332-10.722c-3.949 4.544-9.644 7.149-15.621 7.149s-11.671-2.606-15.621-7.149a8.172 8.172 0 0 0-12.332 10.722c7.055 8.113 17.244 12.768 27.953 12.768z"/></svg>