<svg width="800" height="800" viewBox="0 0 24 24" data-name="Flat Line" xmlns="http://www.w3.org/2000/svg" class="icon flat-line"><path d="M17 6V4a1 1 0 0 0-1-1h-3l-.5 2h-3L9 3H6a1 1 0 0 0-1 1v16a1 1 0 0 0 1 1h7.63A8 8 0 0 1 17 6Z" style="fill:#2ca9bc;stroke-width:2"/><path d="M19 11h-2.5a1.5 1.5 0 0 0-1.5 1.5h0a1.5 1.5 0 0 0 1.5 1.5h1a1.5 1.5 0 0 1 1.5 1.5h0a1.5 1.5 0 0 1-1.5 1.5H15" style="fill:none;stroke:#000;stroke-linecap:round;stroke-linejoin:round;stroke-width:2"/><path data-name="primary" d="M14 21H6a1 1 0 0 1-1-1V4a1 1 0 0 1 1-1h10a1 1 0 0 1 1 1v2" style="fill:none;stroke:#000;stroke-linecap:round;stroke-linejoin:round;stroke-width:2"/><path data-name="primary" d="M17 11v-1m0 8v-1M13 3H9l.5 2h3Z" style="fill:none;stroke:#000;stroke-linecap:round;stroke-linejoin:round;stroke-width:2"/></svg>