<svg width="800" height="800" viewBox="0 0 120 120" id="Layer_1" version="1.1" xml:space="preserve" xmlns="http://www.w3.org/2000/svg"><style>.st1{opacity:.1}</style><path d="M60.9 29.8 35.8 18.9c-5.3-2.3-11.4.6-13 6.2l-7.2 26.4c-.4 1.6-.3 3.2.4 4.7l21.6 45.2c1.2 2.6 4.3 3.6 6.9 2.4l39-18.7c2.6-1.2 3.6-4.3 2.4-6.9L64.3 33c-.7-1.4-1.9-2.6-3.4-3.2zM38.3 40.6c-2.9 1.4-6.3.2-7.7-2.7-1.4-2.9-.2-6.3 2.7-7.7s6.3-.2 7.7 2.7c1.4 2.9.1 6.4-2.7 7.7z" style="fill:#9fd8df"/><path d="m84.8 82.6-39 18.7c-2.6 1.2-5.6.1-6.9-2.4L17.3 53.7c-.7-1.5-.8-3.1-.4-4.7l7.2-26.4c.1-.2.1-.4.2-.6-.7.9-1.2 1.9-1.5 3.1l-7.2 26.4c-.4 1.6-.3 3.2.4 4.7l21.6 45.2c1.2 2.6 4.3 3.6 6.9 2.4l39-18.7c1.5-.7 2.5-2.1 2.8-3.6-.4.4-.9.8-1.5 1.1z" class="st1"/><path d="m52.7 15.9-26.6 6.4c-5.6 1.4-8.7 7.4-6.6 12.7l10.1 25.5c.6 1.5 1.7 2.7 3.1 3.5l44.5 23.1c2.5 1.3 5.6.3 6.9-2.2L104 46.5c1.3-2.5.3-5.6-2.2-6.9L57.4 16.5c-1.5-.8-3.1-1-4.7-.6zM41.2 38.2c-1.5 2.8-5 3.9-7.8 2.5s-3.9-5-2.5-7.8c1.5-2.8 5-3.9 7.8-2.5 2.8 1.5 4 5 2.5 7.8z" style="fill:#ff7171"/><path class="st1" d="M38.7 30.4c2.8 1.5 4 5 2.5 7.8-.8 1.5-2.1 2.5-3.7 2.9.9-.5 1.7-1.3 2.2-2.3 1.5-2.8.4-6.3-2.5-7.8-1.3-.7-2.8-.8-4.1-.5 1.7-.9 3.8-1 5.6-.1z"/><path d="M84.8 81.7c-1.3 2.5-4.4 3.5-6.9 2.2L33.4 60.8c-1.4-.7-2.6-2-3.1-3.5L20.1 31.9c-.5-1.3-.7-2.6-.7-3.8-.8 2.2-.9 4.6 0 7l10.1 25.5c.6 1.5 1.7 2.7 3.1 3.5l44.5 23.1c2.5 1.3 5.6.3 6.9-2.2l19.9-38.4c.5-.9.7-2 .5-3L84.8 81.7z" class="st1"/><path class="st1" d="m32.7 64 44.5 23.1c.4.2.8.4 1.2.4l-1.9.9c-.6-.1-1.3-.2-1.9-.6l-44.4-23c-1.4-.7-2.5-2-3.1-3.5l-8.4-21.1 1.2-4.2 9.7 24.5c.6 1.5 1.7 2.8 3.1 3.5z"/></svg>