<svg width="800" height="800" viewBox="0 0 50 50" data-name="Layer 1" id="Layer_1" xmlns="http://www.w3.org/2000/svg"><defs><style>.cls-1{fill:#231f20}.cls-2{fill:#ffba50}.cls-3{fill:#ff8e5a}.cls-4{fill:#7cc05b}.cls-5{fill:#8d7f89}.cls-6{fill:#00a1d3}</style></defs><path class="cls-1" d="m43.554 38.866 1.939-11.227a.488.488 0 0 0-.048-.293.339.339 0 0 0-.018-.039.374.374 0 0 0-.045-.067.491.491 0 0 0-.4-.218H26.22l-.635-3.674a1.654 1.654 0 0 0-1.633-1.376h-3.189a1.442 1.442 0 0 0-1.441 1.441v.392a1.442 1.442 0 0 0 1.441 1.441H24.9l2.433 14.085a3.483 3.483 0 0 0 1.205 2.089 2.142 2.142 0 1 0 2.674.808h8.384a2.113 2.113 0 0 0-.334 1.136 2.136 2.136 0 1 0 3.73-1.407.492.492 0 0 0 .062-.229.5.5 0 0 0-.5-.5H30.771a2.481 2.481 0 0 1-2.421-1.939h14.71a.459.459 0 0 0 .494-.423Zm-4.034-7.891h4.38l-.309 1.794a.5.5 0 0 0-.115-.023H39.3Zm-.349 2.771h4.253l-.306 1.772h-4.169Zm-11.844-1a.489.489 0 0 0-.115.023l-.31-1.794h4.408l.217 1.771Zm.054 1h4.269l.217 1.772h-4.18Zm.785 4.543-.306-1.771h4.129l.217 1.771Zm9.426 0h-4.379L33 36.518h4.819Zm.349-2.77h-5.067l-.217-1.772h5.506Zm.348-2.772h-5.755l-.217-1.771h6.2Zm4.352 5.542H38.6l.223-1.77h4.123Z"/><path class="cls-1" d="M23.44 35.2h-.34a1.384 1.384 0 0 0 .071-.419V33.5a1.412 1.412 0 0 0-1.411-1.41h-5.19a6.343 6.343 0 1 0-9.757 2.164 6.34 6.34 0 0 0 7.262 10.351 1.411 1.411 0 0 0 1.309.891h8.056a1.412 1.412 0 0 0 1.41-1.41v-1.272a1.412 1.412 0 0 0-1.41-1.41h-.34a1.408 1.408 0 0 0 .07-.418v-1.275a1.408 1.408 0 0 0-.07-.418h.341a1.412 1.412 0 0 0 1.41-1.41v-1.276A1.412 1.412 0 0 0 23.44 35.2Z"/><path class="cls-2" d="M5.5 39.153a5.347 5.347 0 1 1 5.347 5.347A5.354 5.354 0 0 1 5.5 39.153ZM23.85 42.814v1.276a.411.411 0 0 1-.41.41h-8.058a.411.411 0 0 1-.411-.41.494.494 0 0 0-.02-.1 6.374 6.374 0 0 0 1.337-1.59h7.152a.411.411 0 0 1 .41.414Z"/><path class="cls-1" d="M10.847 34.7a4.449 4.449 0 1 0 4.453 4.453 4.454 4.454 0 0 0-4.453-4.453Z"/><path class="cls-3" d="M10.847 42.6a3.449 3.449 0 1 1 3.453-3.447 3.453 3.453 0 0 1-3.453 3.447ZM16.774 41.4a6.284 6.284 0 0 0 .413-2.1h4.571a.41.41 0 0 1 .411.41v1.275a.41.41 0 0 1-.411.41c-.013 0-.025.007-.038.008Z"/><path class="cls-1" d="M11.026 38.651h-.361a.414.414 0 0 1 0-.828h1.067a.5.5 0 0 0 0-1h-.385v-.4a.5.5 0 0 0-1 0v.438a1.412 1.412 0 0 0 .321 2.789h.362a.414.414 0 0 1 0 .828H9.962a.5.5 0 0 0 0 1h.385v.4a.5.5 0 0 0 1 0v-.438a1.412 1.412 0 0 0-.321-2.789Z"/><path class="cls-2" d="M5.5 29.369a5.347 5.347 0 1 1 8.515 4.292 6.295 6.295 0 0 0-6.335 0 5.325 5.325 0 0 1-2.18-4.292Z"/><path class="cls-1" d="M16.974 16.381a3.3 3.3 0 0 0 2.794-1.561l6.583 2.743a3.305 3.305 0 1 0 6.01-1.1l7.571-6.263a3.424 3.424 0 1 0-.609-.795l-7.632 6.311a3.26 3.26 0 0 0-4.975.917L20.161 13.9a3.3 3.3 0 1 0-3.187 2.482Z"/><path class="cls-4" d="M42.2 5.5a2.3 2.3 0 1 1-2.3 2.3 2.306 2.306 0 0 1 2.3-2.3ZM29.585 15.934a2.3 2.3 0 1 1-2.3 2.3 2.306 2.306 0 0 1 2.3-2.3ZM16.974 10.773a2.3 2.3 0 1 1-2.3 2.3 2.306 2.306 0 0 1 2.3-2.3Z"/><path class="cls-5" d="M20.763 24.246a.442.442 0 0 1-.441-.441v-.392a.442.442 0 0 1 .441-.441h3.189a.657.657 0 0 1 .648.546l.126.728Z"/><path class="cls-6" d="M29.409 44.5a1.136 1.136 0 1 1 1.136-1.136 1.137 1.137 0 0 1-1.136 1.136Z"/><circle class="cls-6" cx="41.396" cy="43.364" r="1.136"/><path class="cls-5" d="m44.412 28.022-.337 1.953H26.73l-.338-1.953h18.02z"/><path class="cls-3" d="M21.758 33.094a.41.41 0 0 1 .411.41v1.274a.411.411 0 0 1-.411.411c-.013 0-.025.007-.038.008H15.8a6.325 6.325 0 0 0-.919-.939 6.4 6.4 0 0 0 1.1-1.164Z"/><path class="cls-2" d="M23.85 37.883a.411.411 0 0 1-.41.41h-1.682c-.013 0-.025.007-.038.008h-4.59a6.3 6.3 0 0 0-.67-2.1h6.98a.411.411 0 0 1 .41.41Z"/></svg>