<svg height="800" width="800" xmlns="http://www.w3.org/2000/svg" viewBox="0 0 512 512" xml:space="preserve"><path style="fill:#2872c9" d="M405.912 422.636a793.4 793.4 0 0 0-20.913-10.655c-40.316-19.783-84.162-31.356-128.997-32.397h-88.276c-44.835 1.042-88.691 12.615-128.998 32.397a779.984 779.984 0 0 0-20.921 10.655C6.861 428.4.002 439.779.002 452.155v59.842h211.862v-.062l211.862.062v-59.842a33.383 33.383 0 0 0-17.814-29.519"/><path style="fill:#f0c419" d="M511.998 141.241C511.998 63.232 448.766 0 370.757 0S229.515 63.232 229.515 141.241s63.232 141.241 141.241 141.241 141.242-63.231 141.242-141.241"/><path style="fill:#ee8472" d="m370.565 44.138-96.909 97.103 26.483 26.483 70.426-70.621.195.195.185-.195 70.435 70.621 26.483-26.483z"/><path style="fill:#cc6b5e" d="m370.655 97.103-52.868 52.966v70.621h105.931v-70.621z"/><path style="fill:#1d5fa0" d="M211.86 512 97.102 441.379l26.624-57.397zM211.86 512l114.759-70.621-26.448-57.3z"/><path style="fill:#cb8252" d="M229.515 141.241c0-17.32 3.266-33.836 8.978-49.17-8.474-2.383-17.346-3.796-26.633-3.796-60.522 0-105.931 54.237-105.931 114.759V387.76c20.215-4.829 40.889-7.689 61.793-8.174v-43.644c12.57 10.911 27.71 17.161 44.138 17.161s31.567-6.25 44.138-17.161v43.644c20.904.486 41.578 3.346 61.793 8.174V272.119c-51.738-20.965-88.276-71.618-88.276-130.878"/><path style="fill:#fdc794" d="M243.898 203.034h-40.863c-26.598 0-30.217-20.392-35.01-44.138-5.358 32.689-20.392 42.311-35.61 44.138v44.138c0 60.522 35.063 105.931 79.448 105.931 41.763 0 75.255-40.218 79.06-95.382-20.056-13.779-36.264-32.653-47.025-54.687"/><path style="fill:#ce9a6f" d="M211.86 353.103c-16.428 0-31.567-6.25-44.138-17.161v43.644h88.276v-43.644c-12.57 10.912-27.71 17.161-44.138 17.161"/><path style="fill:#fdc794" d="m260.536 379.825-93.193-.221c-14.663.362-29.193 1.924-43.546 4.484L211.86 512v-.071h.044l88.223-127.779c-13.064-2.313-26.271-3.805-39.591-4.325"/><path style="fill:#1d5fa0" d="M105.929 476.69a8.826 8.826 0 0 0-8.828 8.828V512h17.655v-26.483a8.824 8.824 0 0 0-8.827-8.827M326.619 511.969v-26.456c0-4.873-3.955-8.828-8.828-8.828-4.873 0-8.828 3.955-8.828 8.828v26.447l17.656.009z"/><path style="fill:#f9a471" d="M238.343 432.552c-10.593 0-20.003 4.785-26.483 12.2-6.479-7.415-15.89-12.2-26.483-12.2a8.826 8.826 0 0 0-8.828 8.828 8.826 8.826 0 0 0 8.828 8.828c9.737 0 17.655 7.918 17.655 17.655v31.311l8.775 12.747h.106l8.775-12.747v-31.311c0-9.737 7.918-17.655 17.655-17.655a8.826 8.826 0 0 0 8.828-8.828 8.826 8.826 0 0 0-8.828-8.828"/></svg>