<svg width="800" height="800" viewBox="0 0 48 48" xmlns="http://www.w3.org/2000/svg"><path d="M4 15h40v26a2 2 0 0 1-2 2H6a2 2 0 0 1-2-2V15Z" fill="#4dbe86"/><path d="M19 29h-7a2 2 0 0 0-2 2v12h11V31a2 2 0 0 0-2-2ZM43.25 5.17l4.36 9.44a4.05 4.05 0 0 1-.08 3.66 5.77 5.77 0 0 1-5 2.91c-3.13 0-5.65-3.36-5.64-6.06L35.22 4h6.21a2 2 0 0 1 1.82 1.17ZM4.75 5.17.4 14.62a4.05 4.05 0 0 0 .08 3.66 5.77 5.77 0 0 0 5 2.91c3.13 0 5.65-3.36 5.64-6.06L12.78 4H6.57a2 2 0 0 0-1.82 1.17Z" fill="#ec5044"/><path d="M20.64 4.16a.49.49 0 0 0-.36-.16h-8.73s-1.19 11.8-1.19 11.82c0 3 2.11 5.35 4.71 5.35s4.69-2.4 4.69-5.31l1-11.33a.51.51 0 0 0-.12-.37ZM36.9 4h-8.44a.49.49 0 0 0-.36.16.51.51 0 0 0-.13.38l.7 11.3c0 3 2.11 5.35 4.7 5.35s4.72-2.4 4.72-5.35C38.09 15.81 36.9 4 36.9 4Z" fill="#e7e9e9"/><path d="M28.75 4h-9.21v11.82c0 3 2.1 5.35 4.69 5.35S29 18.78 29 15.83Z" fill="#ec5044"/><rect x="25" y="25" width="14" height="14" rx="2" ry="2" fill="#fff"/></svg>