<svg width="800" height="800" viewBox="0 0 64 64" xmlns="http://www.w3.org/2000/svg" xmlns:xlink="http://www.w3.org/1999/xlink"><defs><circle id="a" cx="24" cy="24" r="24"/></defs><g fill="none" fill-rule="evenodd"><g transform="translate(3 14)"><mask id="b" fill="#fff"><use xlink:href="#a"/></mask><use fill="#5EA7FF" xlink:href="#a"/><path fill="#E8E8E8" d="M36.666 17.005s-5.828-2.378-7.564-1.189c-1.736 1.19-.808 6.805-.808 6.805S25.706 26.328 27 28.279c1.294 1.95 4.887 1.28 6.906 3 2.018 1.72 1.18 4.807 1.18 4.807l-.489 3.605s5.408-2.424 6.966-5.914c1.558-3.491 1.053-8.964 1.053-8.964l3.156-2.862 2.776-9-9.74-3.15L37.735 5 30.77 6.974l-.629 5.236 5.35 1.771 1.175 3.024zM-1.81 20.04S.16 18.784.422 18.764c2.017-.153 9.046.276 10.884-2.389 2.078-3.011 3.81-7 3.81-7l-.07-3.068L4.184 3.641l-5.995 16.4z" mask="url(#b)"/></g><path fill="#E8E8E8" d="m16.85 56.023.83-9.174-6.673-5.109s-.385-4.088 4.459-4.666c4.844-.578 7.828 2.418 7.828 2.418s1.923 2.976 1.206 4.998c-.717 2.021-2.573 5.049-2.573 5.049s-.147 3.44-1.405 5.045c-1.257 1.606-3.672 1.439-3.672 1.439Z"/><circle cx="54" cy="11" r="10" fill="#22BA8E"/><path fill="#FFDD95" d="M55.336 4.05a.452.452 0 0 1 .288.45c0 .324-.15.558-.45.702-.192.096-.462.144-.81.144-.312 0-.63-.051-.954-.153-.324-.102-.504-.195-.54-.279-.204-.576-.102-.99.306-1.242.096-.06.282-.09.558-.09.756 0 1.29.156 1.602.468Zm2.538 6.606c0 .876-.468 1.95-1.404 3.222-.9 1.152-1.764 1.728-2.592 1.728-.816 0-1.644-.252-2.484-.756-.72-.528-1.068-1.014-1.044-1.458.024-.252.33-.378.918-.378.492 0 .948.084 1.368.252.144.12.378.27.702.45.204.012.495-.222.873-.702s.567-.852.567-1.116c0-.156-.102-.234-.306-.234-.108 0-.564.036-1.368.108-.804.072-1.41.108-1.818.108-.912 0-1.482-.27-1.71-.81-.012-.012-.018-.072-.018-.18 0-.624.54-1.572 1.62-2.844 1.188-1.356 2.214-2.034 3.078-2.034.612 0 1.23.234 1.854.702.66.42.966.744.918.972-.144.768-.63 1.152-1.458 1.152a1.67 1.67 0 0 1-.432-.063c-.156-.042-.318-.174-.486-.396-.168-.222-.348-.333-.54-.333-.216 0-.603.303-1.161.909-.558.606-.837 1.041-.837 1.305 0 .036.048.054.144.054.18 0 .774-.108 1.782-.324 1.008-.216 1.794-.324 2.358-.324.984 0 1.476.33 1.476.99Zm-2.52 6.624c0 .504-.342.87-1.026 1.098-.18.048-.501-.015-.963-.189-.462-.174-.699-.333-.711-.477-.06-.504.042-.846.306-1.026.144-.108.378-.162.702-.162.396 0 .762.054 1.098.162.336.108.519.219.549.333.03.114.045.201.045.261Z"/></g></svg>